<?xml version="1.0" encoding="utf-8"?>
<!-- Generator: Adobe Illustrator 18.1.0, SVG Export Plug-In . SVG Version: 6.00 Build 0)  -->
<svg version="1.1" id="Capa_1" xmlns="http://www.w3.org/2000/svg" xmlns:xlink="http://www.w3.org/1999/xlink" x="0px" y="0px"
	 viewBox="-480 283.8 46.2 46.2" enable-background="new -480 283.8 46.2 46.2" xml:space="preserve">
<g>
	<g>
		<path fill="#444444" d="M-456.9,283.8c-12.7,0-23.1,10.3-23.1,23.1c0,12.7,10.3,23.1,23.1,23.1c12.7,0,23.1-10.3,23.1-23.1
			C-433.8,294.2-444.2,283.8-456.9,283.8z M-456.9,326.3c-10.7,0-19.4-8.7-19.4-19.4c0-10.7,8.7-19.4,19.4-19.4
			c10.7,0,19.4,8.7,19.4,19.4C-437.5,317.6-446.2,326.3-456.9,326.3z"/>
		<path fill="#444444" d="M-456.9,290.5c-9,0-16.4,7.4-16.4,16.4c0,9,7.4,16.4,16.4,16.4c9,0,16.4-7.4,16.4-16.4
			C-440.5,297.9-447.9,290.5-456.9,290.5z M-453.9,317.2c0,1.6-1.4,2.9-3,2.9c-1.6,0-3-1.3-3-2.9v-10c0-1.6,1.4-2.9,3-2.9
			c1.6,0,3,1.3,3,2.9V317.2z M-456.9,302c-2.1,0-3.8-1.7-3.8-3.8c0-2.1,1.7-3.8,3.8-3.8c2.1,0,3.8,1.7,3.8,3.8
			C-453.2,300.3-454.8,302-456.9,302z"/>
	</g>
</g>
</svg>
